<?xml version="1.0" standalone="no"?>
<!DOCTYPE svg PUBLIC "-//W3C//DTD SVG 20010904//EN"
 "http://www.w3.org/TR/2001/REC-SVG-20010904/DTD/svg10.dtd">
<svg version="1.0" xmlns="http://www.w3.org/2000/svg"
 width="500.000000pt" height="500.000000pt" viewBox="0 0 500.000000 500.000000"
 preserveAspectRatio="xMidYMid meet">

<g transform="translate(0.000000,500.000000) scale(0.100000,-0.100000)"
fill="#000000" stroke="none">
<path d="M0 2500 l0 -2500 2500 0 2500 0 0 2500 0 2500 -2500 0 -2500 0 0
-2500z m1216 1735 c16 -24 13 -31 -114 -292 -141 -289 -160 -316 -201 -279
-12 11 -21 26 -21 35 0 17 243 525 262 549 17 20 56 14 74 -13z m2870 0 c16
-24 13 -30 -91 -242 -59 -120 -119 -242 -132 -271 -30 -64 -63 -84 -93 -57
-11 10 -20 25 -20 34 0 17 243 526 262 549 17 20 56 14 74 -13z m-3248 -107
c7 -7 12 -24 12 -39 0 -31 -16 -43 -112 -84 -38 -16 -68 -32 -68 -35 0 -3 33
-20 73 -39 90 -42 107 -57 107 -93 0 -21 -7 -32 -25 -40 -23 -10 -40 -5 -148
47 -132 63 -157 83 -157 125 0 37 24 56 148 116 109 54 149 63 170 42z m596
-40 c123 -57 144 -72 157 -107 16 -42 -13 -68 -146 -132 -68 -32 -131 -59
-139 -59 -9 0 -23 11 -32 25 -27 42 -11 62 87 109 l90 42 -90 41 c-72 34 -92
47 -97 68 -7 28 18 65 44 65 8 0 65 -23 126 -52z m2274 40 c7 -7 12 -24 12
-39 0 -31 -16 -43 -112 -84 -38 -16 -68 -32 -68 -35 0 -3 33 -20 73 -39 90
-42 107 -57 107 -93 0 -21 -7 -32 -25 -40 -22 -10 -40 -4 -147 46 -131 61
-158 82 -158 126 0 37 24 56 148 116 109 54 149 63 170 42z m596 -40 c123 -57
144 -72 157 -107 17 -42 -13 -69 -149 -133 -135 -64 -165 -68 -176 -23 -10 41
7 59 99 100 l86 40 -90 42 c-73 33 -92 47 -97 68 -7 28 18 65 44 65 8 0 65
-23 126 -52z m-1354 -1258 l0 -240 -60 0 c-47 0 -60 3 -60 15 0 14 -3 13 -25
-1 -35 -23 -140 -16 -177 11 -67 50 -89 164 -49 244 40 78 116 100 229 66 21
-7 22 -6 22 69 l0 76 60 0 60 0 0 -240z m-935 193 c22 -12 48 -30 58 -40 16
-19 16 -21 -23 -52 l-40 -32 -28 19 c-61 43 -131 35 -177 -19 -20 -25 -25 -41
-25 -86 0 -49 4 -59 34 -89 29 -29 41 -34 81 -34 31 0 60 7 81 21 37 22 53 18
93 -24 l23 -25 -42 -31 c-58 -42 -136 -58 -209 -43 -77 16 -130 55 -164 122
-25 49 -28 63 -24 123 6 100 58 167 153 203 53 20 157 13 209 -13z m432 -119
c103 -79 89 -235 -28 -294 -80 -42 -207 -19 -258 46 -60 77 -45 189 33 249 65
49 188 49 253 -1z m863 8 c43 -32 70 -81 70 -128 l0 -44 -125 0 c-77 0 -125
-4 -125 -10 0 -5 9 -19 20 -30 23 -23 84 -27 125 -8 23 10 29 9 52 -14 32 -32
26 -54 -22 -73 -87 -37 -220 -8 -267 58 -33 46 -33 158 0 205 55 77 196 99
272 44z m800 28 c0 -6 -21 -71 -47 -145 -42 -121 -49 -135 -70 -135 -13 0 -23
4 -23 9 0 10 65 199 85 249 9 21 21 32 34 32 12 0 21 -5 21 -10z m-3100 -88
c0 -12 -16 -25 -47 -38 l-48 -20 45 -15 c33 -12 46 -21 48 -38 4 -26 3 -25
-96 11 -47 18 -53 23 -50 46 2 21 13 29 63 48 74 28 85 29 85 6z m3191 -6 c53
-20 65 -28 67 -49 3 -22 -4 -27 -68 -51 -39 -14 -73 -26 -76 -26 -3 0 -4 10
-2 22 2 16 15 27 46 39 l44 16 -46 17 c-33 13 -46 23 -46 37 0 24 4 24 81 -5z
m-1831 -621 c0 -96 -3 -115 -15 -115 -12 0 -15 19 -15 115 0 96 3 115 15 115
12 0 15 -19 15 -115z m-92 79 c16 -11 22 -25 22 -53 0 -49 -25 -72 -85 -78
-42 -5 -45 -8 -45 -34 0 -22 -5 -29 -20 -29 -19 0 -20 7 -20 105 l0 105 63 0
c40 0 70 -5 85 -16z m182 -93 c0 -53 3 -60 22 -67 32 -10 58 27 58 82 0 32 4
44 15 44 12 0 15 -16 15 -80 0 -64 -3 -80 -15 -80 -8 0 -15 5 -15 10 0 7 -6 7
-19 0 -29 -15 -62 -12 -83 7 -14 12 -18 31 -18 80 0 56 2 63 20 63 18 0 20 -7
20 -59z m265 39 c0 -11 -9 -14 -37 -12 -21 2 -38 -1 -38 -6 0 -6 17 -19 38
-29 62 -30 54 -93 -13 -93 -43 0 -65 9 -65 26 0 10 11 12 45 7 55 -7 61 11 10
32 -29 13 -55 40 -55 59 0 2 7 12 16 21 21 21 99 17 99 -5z m105 -5 c0 -20 5
-25 25 -25 14 0 25 -4 25 -10 0 -5 -11 -10 -25 -10 -21 0 -25 -5 -25 -30 0
-38 -18 -40 -22 -2 -2 21 -9 28 -30 30 -38 4 -36 22 2 22 25 0 30 4 30 25 0
14 5 25 10 25 6 0 10 -11 10 -25z m-1614 -870 c15 -23 13 -31 -96 -252 -62
-125 -121 -247 -132 -271 -11 -25 -30 -48 -45 -55 -22 -10 -28 -8 -45 13 -12
15 -17 32 -14 46 7 27 242 512 257 531 18 21 57 15 75 -12z m2870 0 c15 -23
12 -31 -115 -292 -143 -294 -163 -321 -202 -274 -13 16 -18 33 -15 47 7 28
242 512 257 530 18 22 57 17 75 -11z m-3247 -109 c19 -23 9 -66 -19 -82 -14
-8 -54 -26 -88 -42 l-64 -27 84 -44 c92 -49 98 -55 98 -92 0 -18 -8 -29 -26
-38 -24 -11 -38 -6 -143 43 -137 65 -161 84 -161 124 0 40 29 63 150 121 110
52 150 61 169 37z m614 -46 c109 -53 127 -65 136 -92 18 -51 -5 -73 -146 -139
-68 -32 -131 -59 -138 -59 -8 0 -22 11 -31 25 -27 41 -7 67 80 109 42 20 76
40 76 45 0 4 -36 24 -80 44 -85 38 -104 63 -80 106 17 33 48 26 183 -39z
m2255 48 c7 -7 12 -24 12 -39 0 -31 -16 -43 -113 -84 l-67 -28 32 -21 c18 -11
55 -31 83 -44 56 -26 65 -36 65 -73 0 -18 -8 -29 -26 -38 -24 -11 -39 -6 -148
45 -131 61 -156 81 -156 123 0 39 30 63 150 120 108 51 147 60 168 39z m615
-48 c109 -53 127 -65 136 -92 18 -51 -5 -72 -146 -139 -70 -33 -133 -58 -142
-57 -8 2 -22 15 -31 30 -21 39 -8 56 83 101 43 21 77 42 77 46 0 3 -36 23 -80
43 -85 40 -103 64 -80 107 17 33 48 26 183 -39z"/>
<path d="M2705 2825 c-62 -61 0 -169 80 -139 26 10 48 62 40 100 -11 62 -76
84 -120 39z"/>
<path d="M2272 2830 c-33 -31 -31 -102 4 -129 35 -27 65 -27 91 2 50 53 20
147 -47 147 -14 0 -36 -9 -48 -20z"/>
<path d="M3150 2840 c-33 -33 -24 -40 50 -40 39 0 70 4 70 8 0 18 -48 52 -73
52 -15 0 -36 -9 -47 -20z"/>
<path d="M2170 2250 c0 -40 0 -40 39 -40 49 0 69 20 53 55 -10 21 -19 25 -52
25 l-40 0 0 -40z"/>
</g>
</svg>
